<?xml version="1.0" encoding="utf-8"?>
<!-- Generator: Adobe Illustrator 22.0.1, SVG Export Plug-In . SVG Version: 6.00 Build 0)  -->
<svg version="1.1" id="Layer_1" xmlns="http://www.w3.org/2000/svg" xmlns:xlink="http://www.w3.org/1999/xlink" x="0px" y="0px"
	 viewBox="0 0 413.17 106.676" enable-background="new 0 0 413.17 106.676" xml:space="preserve">
<g>
	<polyline fill="none" points="0,106.676 0,0 413.17,0 413.17,106.676 	"/>
	<path fill="#FF4143" d="M5.517,65.14c-1.418-2.222-2.127-5.168-2.127-8.84c0-2.174,0.276-4.963,0.829-8.369
		c0.552-3.406,1.262-6.582,2.127-9.528c0.433-1.545,1.01-2.608,1.73-3.188c0.721-0.58,1.875-0.87,3.461-0.87
		c2.452,0,3.678,0.822,3.678,2.463c0,1.208-0.458,4.01-1.37,8.405c-1.154,5.314-1.73,8.913-1.73,10.796
		c0,1.449,0.191,2.561,0.577,3.333c0.384,0.773,1.033,1.159,1.947,1.159c0.865,0,1.947-0.604,3.245-1.812
		c1.298-1.207,3.029-3.115,5.192-5.725c0.577-0.676,1.226-1.014,1.947-1.014c0.624,0,1.118,0.289,1.478,0.869
		c0.361,0.58,0.541,1.377,0.541,2.392c0,1.933-0.458,3.431-1.37,4.492c-4.759,5.846-9.207,8.768-13.34,8.768
		C9.206,68.473,6.934,67.362,5.517,65.14z M8.365,28.149c-1.009-0.942-1.514-2.257-1.514-3.949c0-1.69,0.66-3.103,1.983-4.239
		c1.322-1.134,2.968-1.703,4.939-1.703c1.778,0,3.22,0.435,4.327,1.304c1.105,0.87,1.659,2.102,1.659,3.695
		c0,1.933-0.625,3.467-1.875,4.601c-1.25,1.136-2.909,1.703-4.976,1.703C10.889,29.562,9.375,29.091,8.365,28.149z"/>
	<path fill="#FF4143" d="M22.462,65.574c-0.746-1.932-1.118-5.023-1.118-9.274c0-6.279,0.889-12.246,2.668-17.897
		c0.433-1.4,1.142-2.427,2.127-3.08c0.985-0.652,2.367-0.978,4.146-0.978c0.961,0,1.634,0.121,2.019,0.362
		c0.384,0.242,0.577,0.701,0.577,1.376c0,0.773-0.36,2.512-1.082,5.217c-0.481,1.933-0.865,3.623-1.154,5.072
		c-0.288,1.449-0.529,3.237-0.721,5.363c1.586-4.155,3.365-7.536,5.336-10.145c1.971-2.608,3.905-4.467,5.805-5.579
		c1.899-1.111,3.642-1.667,5.228-1.667c3.125,0,4.688,1.57,4.688,4.71c0,1.884-0.53,5.289-1.586,10.216
		c-0.914,4.203-1.37,6.981-1.37,8.333c0,1.933,0.696,2.898,2.091,2.898c0.961,0,2.103-0.591,3.425-1.775
		c1.321-1.183,3.088-3.103,5.3-5.761c0.577-0.676,1.226-1.014,1.947-1.014c0.624,0,1.118,0.289,1.478,0.869
		c0.361,0.58,0.541,1.377,0.541,2.392c0,1.933-0.458,3.431-1.37,4.492c-2.067,2.561-4.291,4.662-6.67,6.304
		c-2.379,1.643-5.083,2.464-8.112,2.464c-2.452,0-4.303-0.712-5.553-2.138c-1.25-1.424-1.875-3.489-1.875-6.195
		c0-1.352,0.335-3.768,1.009-7.246c0.624-3.043,0.938-5.144,0.938-6.303c0-0.772-0.265-1.16-0.793-1.16
		c-0.625,0-1.503,0.81-2.632,2.428c-1.13,1.619-2.284,3.756-3.461,6.412c-1.178,2.657-2.127,5.46-2.848,8.405
		c-0.53,2.271-1.143,3.805-1.839,4.602c-0.698,0.797-1.792,1.195-3.281,1.195C24.492,68.473,23.207,67.507,22.462,65.574z"/>
	<path fill="#FF4143" d="M99.403,52.821c0.361,0.58,0.541,1.377,0.541,2.392c0,1.933-0.458,3.431-1.37,4.492
		c-1.972,2.416-4.135,4.481-6.49,6.195c-2.356,1.715-4.687,2.572-6.995,2.572c-3.654,0-6.442-2.148-8.365-6.449
		c-2.019,2.562-3.786,4.275-5.3,5.145c-1.514,0.87-3.281,1.305-5.3,1.305c-2.933,0-5.349-1.099-7.248-3.297
		c-1.899-2.197-2.848-5.06-2.848-8.586c0-3.864,0.817-7.451,2.452-10.761c1.634-3.308,3.882-6.014,6.742-8.115
		c2.86-2.101,6.069-3.344,9.627-3.731c0.913-9.371,2.656-17.377,5.228-24.02c2.571-6.642,5.949-9.963,10.132-9.963
		c2.066,0,3.786,0.942,5.156,2.826s2.055,4.735,2.055,8.55c0,5.41-1.323,11.738-3.966,18.984c-2.644,7.246-6.178,14.686-10.6,22.317
		c0.191,2.802,0.613,4.807,1.262,6.014c0.649,1.208,1.479,1.812,2.488,1.812c1.298,0,2.62-0.579,3.966-1.738
		c1.345-1.16,3.148-3.091,5.408-5.798c0.577-0.676,1.226-1.014,1.947-1.014C98.549,51.952,99.043,52.241,99.403,52.821z
		 M71.388,60.031c0.913-0.748,2.066-2.138,3.461-4.166c-0.481-2.609-0.721-5.531-0.721-8.768c0-1.159,0.047-3.043,0.145-5.651
		c-2.645,0.822-4.844,2.597-6.598,5.326c-1.755,2.729-2.632,5.761-2.632,9.094c0,3.526,1.201,5.289,3.605,5.289
		C69.561,61.154,70.474,60.78,71.388,60.031z M86.675,11.991c-0.914,3.261-1.694,7.524-2.344,12.789
		c-0.649,5.266-1.118,10.772-1.406,16.521c5.383-11.786,8.076-21.254,8.076-28.404c0-1.835-0.157-3.261-0.469-4.275
		C90.22,7.607,89.848,7.1,89.416,7.1C88.502,7.1,87.588,8.73,86.675,11.991z"/>
	<path fill="#FF4143" d="M121.397,54.995c0.36,0.58,0.541,1.377,0.541,2.392c0,1.738-0.409,3.236-1.226,4.492
		c-1.347,2.077-3.113,3.695-5.3,4.854c-2.188,1.159-4.795,1.739-7.824,1.739c-4.615,0-8.197-1.388-10.744-4.166
		c-2.549-2.777-3.822-6.533-3.822-11.268c0-3.333,0.696-6.437,2.091-9.311c1.394-2.874,3.329-5.156,5.805-6.847
		c2.475-1.69,5.275-2.536,8.401-2.536c2.788,0,5.023,0.833,6.706,2.5c1.683,1.667,2.524,3.925,2.524,6.775
		c0,3.333-1.189,6.195-3.569,8.587c-2.38,2.391-6.43,4.287-12.151,5.688c1.154,2.223,3.101,3.333,5.841,3.333
		c1.971,0,3.593-0.458,4.867-1.377c1.273-0.917,2.751-2.463,4.435-4.637c0.577-0.725,1.226-1.087,1.947-1.087
		C120.543,54.126,121.036,54.416,121.397,54.995z M103.586,44.562c-1.226,2.077-1.839,4.589-1.839,7.535v0.145
		c2.836-0.676,5.071-1.689,6.707-3.042c1.634-1.352,2.452-2.922,2.452-4.71c0-0.917-0.252-1.654-0.757-2.21
		c-0.505-0.555-1.19-0.833-2.055-0.833C106.314,41.446,104.812,42.485,103.586,44.562z"/>
	<path fill="#FF4143" d="M148.654,47.242c1.562,0.87,2.885,2.054,3.966,3.551s1.623,3.333,1.623,5.507
		c0,3.382-1.311,6.159-3.93,8.333c-2.621,2.173-6.118,3.43-10.492,3.768l-0.865,7.101c-0.097,0.725-0.445,1.292-1.046,1.703
		c-0.602,0.409-1.287,0.615-2.055,0.615c-0.721,0-1.311-0.206-1.767-0.615c-0.458-0.411-0.638-0.979-0.541-1.703l0.938-7.246
		c-3.51-0.481-6.286-1.642-8.329-3.478c-2.044-1.835-3.064-4.009-3.064-6.521c0-1.69,0.433-2.994,1.298-3.913
		c0.865-0.917,1.898-1.377,3.101-1.377c1.201,0,2.091,0.339,2.668,1.015c0.577,0.678,0.984,1.739,1.226,3.188
		c0.145,1.112,0.564,2.041,1.262,2.79c0.696,0.749,1.622,1.268,2.776,1.558l1.442-10.869c-2.212-0.87-4.099-1.775-5.661-2.717
		c-1.563-0.942-2.861-2.198-3.894-3.768c-1.034-1.569-1.55-3.514-1.55-5.833c0-3.574,1.345-6.473,4.038-8.695
		c2.692-2.221,6.104-3.478,10.24-3.768l0.865-7.246c0.047-0.725,0.361-1.279,0.938-1.667c0.577-0.386,1.226-0.58,1.947-0.58
		c0.721,0,1.334,0.206,1.839,0.616c0.504,0.411,0.708,0.955,0.613,1.63l-1.01,7.463c3.076,0.483,5.504,1.546,7.283,3.188
		c1.778,1.643,2.668,3.695,2.668,6.159c0,1.643-0.421,2.862-1.262,3.659c-0.842,0.797-1.887,1.195-3.137,1.195
		c-1.01,0-1.839-0.313-2.488-0.942c-0.649-0.627-0.999-1.473-1.046-2.536c-0.144-2.029-1.106-3.357-2.884-3.985l-1.586,11.738
		C145.133,45.479,147.092,46.373,148.654,47.242z M135.062,40.395c0.673,0.75,1.634,1.461,2.884,2.137l1.226-9.999
		c-1.635,0.242-2.897,0.822-3.786,1.739c-0.89,0.918-1.334,2.078-1.334,3.478C134.052,38.765,134.388,39.646,135.062,40.395z
		 M144.508,60.176c0.913-0.797,1.37-1.822,1.37-3.079c0-0.966-0.349-1.812-1.045-2.536c-0.697-0.725-1.719-1.4-3.064-2.028
		l-1.154,9.202C142.297,61.493,143.594,60.974,144.508,60.176z"/>
	<path fill="#FF4143" d="M201.511,52.821c0.36,0.58,0.541,1.377,0.541,2.392c0,1.933-0.458,3.431-1.37,4.492
		c-2.068,2.561-4.291,4.662-6.67,6.304c-2.38,1.643-5.084,2.464-8.112,2.464c-2.549,0-4.615-0.917-6.202-2.754
		c-2.74,1.788-5.601,2.705-8.581,2.754c-0.625,9.322-2.044,17.111-4.255,23.368c-2.211,6.255-5.457,9.383-9.735,9.383
		c-2.596,0-4.518-0.941-5.769-2.825c-1.25-1.885-1.875-4.493-1.875-7.826c0-4.734,1.082-10.253,3.245-16.557
		c2.164-6.304,5.504-13.247,10.023-20.832c0-7.052-0.048-11.956-0.144-14.709c-0.048-1.4,0.505-2.511,1.659-3.333
		c1.154-0.821,2.596-1.232,4.327-1.232c1.009,0,1.742,0.206,2.199,0.616c0.457,0.411,0.708,1.22,0.757,2.427
		c0,1.208,0.023,2.102,0.072,2.681c1.538-1.932,3.053-3.321,4.543-4.167c1.49-0.845,3.076-1.268,4.759-1.268
		c2.692,0,4.892,1.087,6.598,3.261c1.706,2.174,2.56,5.024,2.56,8.55c0,2.561-0.409,5.048-1.226,7.463
		c-0.818,2.416-1.947,4.613-3.389,6.594c1.009,0.29,1.85,0.435,2.523,0.435c1.586,0,3.101-0.579,4.543-1.738
		c1.442-1.16,3.292-3.091,5.553-5.798c0.577-0.676,1.226-1.014,1.947-1.014C200.657,51.952,201.151,52.241,201.511,52.821z
		 M160.948,85.609c0.866-5.677,1.417-12.741,1.659-21.194c-2.067,4.83-3.703,9.443-4.903,13.84
		c-1.201,4.395-1.803,8.09-1.803,11.086c0,1.545,0.18,2.729,0.541,3.551c0.361,0.82,0.782,1.231,1.262,1.231
		C159.002,94.123,160.083,91.284,160.948,85.609z M176.272,58.654c1.466-1.521,2.632-3.405,3.498-5.651
		c0.865-2.247,1.298-4.602,1.298-7.065c0-1.449-0.289-2.547-0.865-3.297c-0.577-0.749-1.347-1.123-2.308-1.123
		c-1.731,0-3.822,1.836-6.274,5.507c-0.048,2.126-0.072,5.242-0.072,9.347c0,2.223-0.025,3.938-0.072,5.145
		C173.207,61.131,174.805,60.176,176.272,58.654z"/>
	<path fill="#FF4143" d="M229.85,52.821c0.36,0.58,0.541,1.377,0.541,2.392c0,1.933-0.457,3.431-1.37,4.492
		c-1.779,2.174-4.291,4.179-7.536,6.014c-3.245,1.837-6.719,2.754-10.42,2.754c-5.047,0-8.966-1.377-11.754-4.13
		c-2.789-2.754-4.182-6.521-4.182-11.304c0-3.333,0.696-6.437,2.091-9.311c1.394-2.874,3.329-5.156,5.805-6.847
		c2.475-1.69,5.275-2.536,8.401-2.536c2.788,0,5.023,0.833,6.706,2.5c1.683,1.667,2.524,3.925,2.524,6.775
		c0,3.333-1.189,6.195-3.569,8.587c-2.38,2.391-6.407,4.287-12.079,5.688c1.201,2.223,3.485,3.333,6.851,3.333
		c2.163,0,4.626-0.761,7.391-2.282c2.764-1.521,5.156-3.515,7.175-5.979c0.577-0.676,1.226-1.014,1.947-1.014
		C228.996,51.952,229.488,52.241,229.85,52.821z M205.693,44.562c-1.226,2.077-1.839,4.589-1.839,7.535v0.145
		c2.836-0.676,5.071-1.689,6.707-3.042c1.634-1.352,2.452-2.922,2.452-4.71c0-0.917-0.252-1.654-0.757-2.21
		c-0.505-0.555-1.19-0.833-2.055-0.833C208.421,41.446,206.919,42.485,205.693,44.562z"/>
	<path fill="#FF4143" d="M225.811,65.574c-0.746-1.932-1.118-5.023-1.118-9.274c0-6.279,0.889-12.246,2.668-17.897
		c0.433-1.4,1.142-2.427,2.127-3.08c0.984-0.652,2.367-0.978,4.146-0.978c0.961,0,1.634,0.121,2.02,0.362
		c0.384,0.242,0.576,0.701,0.576,1.376c0,0.773-0.36,2.512-1.082,5.217c-0.48,1.933-0.865,3.623-1.153,5.072
		c-0.288,1.449-0.529,3.237-0.722,5.363c1.587-4.155,3.365-7.536,5.337-10.145c1.971-2.608,3.905-4.467,5.805-5.579
		c1.899-1.111,3.642-1.667,5.228-1.667c3.125,0,4.688,1.57,4.688,4.71c0,1.884-0.529,5.289-1.586,10.216
		c-0.914,4.203-1.37,6.981-1.37,8.333c0,1.933,0.696,2.898,2.091,2.898c0.961,0,2.104-0.591,3.426-1.775
		c1.321-1.183,3.088-3.103,5.3-5.761c0.577-0.676,1.226-1.014,1.947-1.014c0.624,0,1.118,0.289,1.478,0.869
		c0.361,0.58,0.541,1.377,0.541,2.392c0,1.933-0.457,3.431-1.369,4.492c-2.068,2.561-4.291,4.662-6.671,6.304
		c-2.38,1.643-5.083,2.464-8.112,2.464c-2.451,0-4.303-0.712-5.553-2.138c-1.25-1.424-1.875-3.489-1.875-6.195
		c0-1.352,0.336-3.768,1.01-7.246c0.624-3.043,0.938-5.144,0.938-6.303c0-0.772-0.265-1.16-0.793-1.16
		c-0.625,0-1.504,0.81-2.633,2.428c-1.129,1.619-2.283,3.756-3.461,6.412c-1.178,2.657-2.127,5.46-2.848,8.405
		c-0.53,2.271-1.143,3.805-1.84,4.602s-1.791,1.195-3.281,1.195C227.841,68.473,226.556,67.507,225.811,65.574z"/>
	<path fill="#FF4143" d="M302.752,52.821c0.361,0.58,0.541,1.377,0.541,2.392c0,1.933-0.457,3.431-1.37,4.492
		c-1.972,2.416-4.136,4.481-6.49,6.195c-2.356,1.715-4.687,2.572-6.995,2.572c-3.653,0-6.441-2.148-8.364-6.449
		c-2.019,2.562-3.786,4.275-5.3,5.145c-1.515,0.87-3.281,1.305-5.301,1.305c-2.933,0-5.348-1.099-7.247-3.297
		c-1.899-2.197-2.849-5.06-2.849-8.586c0-3.864,0.817-7.451,2.452-10.761c1.634-3.308,3.882-6.014,6.742-8.115
		c2.86-2.101,6.069-3.344,9.627-3.731c0.913-9.371,2.655-17.377,5.228-24.02c2.572-6.642,5.949-9.963,10.133-9.963
		c2.066,0,3.785,0.942,5.155,2.826s2.056,4.735,2.056,8.55c0,5.41-1.323,11.738-3.967,18.984c-2.645,7.246-6.178,14.686-10.6,22.317
		c0.191,2.802,0.612,4.807,1.262,6.014c0.648,1.208,1.479,1.812,2.487,1.812c1.298,0,2.62-0.579,3.966-1.738
		c1.346-1.16,3.148-3.091,5.408-5.798c0.578-0.676,1.227-1.014,1.947-1.014C301.899,51.952,302.392,52.241,302.752,52.821z
		 M274.737,60.031c0.913-0.748,2.066-2.138,3.462-4.166c-0.481-2.609-0.722-5.531-0.722-8.768c0-1.159,0.048-3.043,0.145-5.651
		c-2.645,0.822-4.844,2.597-6.598,5.326c-1.756,2.729-2.633,5.761-2.633,9.094c0,3.526,1.201,5.289,3.605,5.289
		C272.91,61.154,273.823,60.78,274.737,60.031z M290.025,11.991c-0.913,3.261-1.694,7.524-2.344,12.789
		c-0.649,5.266-1.118,10.772-1.405,16.521c5.383-11.786,8.076-21.254,8.076-28.404c0-1.835-0.157-3.261-0.469-4.275
		c-0.313-1.015-0.686-1.522-1.118-1.522C291.852,7.1,290.938,8.73,290.025,11.991z"/>
	<path fill="#FF4143" d="M331.092,52.821c0.36,0.58,0.541,1.377,0.541,2.392c0,1.933-0.457,3.431-1.37,4.492
		c-1.779,2.174-4.291,4.179-7.536,6.014c-3.244,1.837-6.719,2.754-10.42,2.754c-5.047,0-8.967-1.377-11.754-4.13
		c-2.789-2.754-4.182-6.521-4.182-11.304c0-3.333,0.695-6.437,2.09-9.311c1.395-2.874,3.329-5.156,5.806-6.847
		c2.476-1.69,5.275-2.536,8.401-2.536c2.787,0,5.022,0.833,6.705,2.5c1.684,1.667,2.524,3.925,2.524,6.775
		c0,3.333-1.189,6.195-3.569,8.587c-2.38,2.391-6.406,4.287-12.078,5.688c1.201,2.223,3.484,3.333,6.85,3.333
		c2.164,0,4.627-0.761,7.392-2.282s5.156-3.515,7.175-5.979c0.577-0.676,1.227-1.014,1.947-1.014
		C330.238,51.952,330.731,52.241,331.092,52.821z M306.935,44.562c-1.226,2.077-1.839,4.589-1.839,7.535v0.145
		c2.836-0.676,5.071-1.689,6.707-3.042c1.633-1.352,2.451-2.922,2.451-4.71c0-0.917-0.252-1.654-0.758-2.21
		c-0.504-0.555-1.189-0.833-2.055-0.833C309.662,41.446,308.16,42.485,306.935,44.562z"/>
	<path fill="#FF4143" d="M327.053,65.574c-0.746-1.932-1.117-5.023-1.117-9.274c0-6.279,0.889-12.246,2.668-17.897
		c0.433-1.4,1.141-2.427,2.127-3.08c0.984-0.652,2.367-0.978,4.146-0.978c0.961,0,1.634,0.121,2.02,0.362
		c0.384,0.242,0.576,0.701,0.576,1.376c0,0.773-0.36,2.512-1.082,5.217c-0.48,1.933-0.865,3.623-1.153,5.072
		c-0.288,1.449-0.529,3.237-0.722,5.363c1.587-4.155,3.365-7.536,5.337-10.145c1.971-2.608,3.905-4.467,5.805-5.579
		c1.899-1.111,3.642-1.667,5.228-1.667c3.125,0,4.688,1.57,4.688,4.71c0,1.884-0.529,5.289-1.586,10.216
		c-0.914,4.203-1.37,6.981-1.37,8.333c0,1.933,0.696,2.898,2.091,2.898c0.961,0,2.104-0.591,3.426-1.775
		c1.321-1.183,3.088-3.103,5.3-5.761c0.577-0.676,1.226-1.014,1.947-1.014c0.624,0,1.118,0.289,1.478,0.869
		c0.361,0.58,0.541,1.377,0.541,2.392c0,1.933-0.457,3.431-1.369,4.492c-2.068,2.561-4.291,4.662-6.671,6.304
		c-2.38,1.643-5.083,2.464-8.112,2.464c-2.451,0-4.303-0.712-5.553-2.138c-1.25-1.424-1.875-3.489-1.875-6.195
		c0-1.352,0.336-3.768,1.01-7.246c0.624-3.043,0.938-5.144,0.938-6.303c0-0.772-0.265-1.16-0.793-1.16
		c-0.625,0-1.504,0.81-2.633,2.428c-1.129,1.619-2.283,3.756-3.461,6.412c-1.178,2.657-2.127,5.46-2.848,8.405
		c-0.53,2.271-1.143,3.805-1.84,4.602s-1.791,1.195-3.281,1.195C329.083,68.473,327.798,67.507,327.053,65.574z"/>
	<path fill="#FF4143" d="M373.455,41.228c-0.097,2.416-0.145,4.3-0.145,5.652c0,3.478,0.181,6.195,0.541,8.151
		c0.361,1.957,0.961,3.358,1.803,4.203c0.841,0.846,2.008,1.268,3.498,1.268c0.768,0,1.682-0.241,2.74-0.725
		c1.057-0.482,2.019-1.11,2.885-1.884c0.527-0.482,1.057-0.725,1.586-0.725c0.576,0,1.045,0.326,1.406,0.979
		c0.36,0.652,0.541,1.438,0.541,2.354c0,0.918-0.181,1.812-0.541,2.682c-0.361,0.869-0.902,1.594-1.623,2.173
		c-2.5,2.078-5.336,3.116-8.509,3.116c-4.567,0-7.909-1.92-10.023-5.761c-2.116-3.84-3.173-8.851-3.173-15.035
		c0-2.125,0.072-4.275,0.217-6.449h-2.812c-1.442,0-2.416-0.265-2.921-0.797c-0.505-0.531-0.757-1.376-0.757-2.536
		c0-2.705,1.082-4.058,3.244-4.058h4.111c0.816-5.313,2.066-10.168,3.75-14.564c1.682-4.395,3.713-7.898,6.093-10.507
		c2.38-2.608,4.939-3.913,7.68-3.913c2.019,0,3.605,0.895,4.759,2.681c1.154,1.788,1.731,4.034,1.731,6.738
		c0,7.488-3.126,14.01-9.374,19.564h8.076c0.769,0,1.321,0.17,1.658,0.507c0.336,0.338,0.505,0.967,0.505,1.884
		c0,3.333-2.717,5-8.148,5H373.455z M378.684,14.527c-0.891,1.812-1.73,4.324-2.523,7.536c-0.794,3.213-1.455,6.775-1.984,10.688
		c2.836-2.463,4.964-5.229,6.383-8.296c1.417-3.067,2.127-5.857,2.127-8.369c0-2.85-0.529-4.275-1.586-4.275
		C380.378,11.81,379.572,12.716,378.684,14.527z"/>
</g>
<g>
</g>
<g>
</g>
<g>
</g>
<g>
</g>
<g>
</g>
<g>
</g>
<g>
</g>
<g>
</g>
<g>
</g>
<g>
</g>
<g>
</g>
<g>
</g>
<g>
</g>
<g>
</g>
<g>
</g>
</svg>
